<svg width="296" height="67" viewBox="0 0 296 67" fill="none" xmlns="http://www.w3.org/2000/svg">
<rect x="1.5" y="2" width="293" height="63" rx="8.5" stroke="url(#paint0_linear_1_713)" stroke-opacity="0.96" stroke-width="3"/>
<path d="M103.793 39.5H100.827L105.346 26.4091H108.913L113.425 39.5H110.46L107.18 29.4006H107.078L103.793 39.5ZM103.607 34.3544H110.613V36.5149H103.607V34.3544ZM114.95 43.1818V29.6818H117.635V31.331H117.756C117.875 31.0668 118.048 30.7983 118.274 30.5256C118.504 30.2486 118.802 30.0185 119.169 29.8352C119.539 29.6477 120 29.554 120.549 29.554C121.265 29.554 121.926 29.7415 122.531 30.1165C123.136 30.4872 123.62 31.0476 123.982 31.7976C124.344 32.5433 124.525 33.4787 124.525 34.6037C124.525 35.6989 124.348 36.6236 123.995 37.3778C123.645 38.1278 123.168 38.6967 122.563 39.0845C121.962 39.468 121.289 39.6598 120.543 39.6598C120.015 39.6598 119.565 39.5724 119.194 39.3977C118.828 39.223 118.527 39.0036 118.293 38.7393C118.059 38.4709 117.88 38.2003 117.756 37.9276H117.673V43.1818H114.95ZM117.615 34.5909C117.615 35.1747 117.696 35.6839 117.858 36.1186C118.02 36.5533 118.255 36.892 118.561 37.1349C118.868 37.3736 119.241 37.4929 119.68 37.4929C120.123 37.4929 120.498 37.3714 120.805 37.1286C121.112 36.8814 121.344 36.5405 121.502 36.1058C121.664 35.6669 121.745 35.1619 121.745 34.5909C121.745 34.0241 121.666 33.5256 121.508 33.0952C121.35 32.6648 121.118 32.3281 120.811 32.0852C120.505 31.8423 120.127 31.7209 119.68 31.7209C119.237 31.7209 118.862 31.8381 118.555 32.0724C118.252 32.3068 118.02 32.6392 117.858 33.0696C117.696 33.5 117.615 34.0071 117.615 34.5909ZM126.341 43.1818V29.6818H129.025V31.331H129.147C129.266 31.0668 129.439 30.7983 129.664 30.5256C129.895 30.2486 130.193 30.0185 130.559 29.8352C130.93 29.6477 131.39 29.554 131.94 29.554C132.656 29.554 133.316 29.7415 133.922 30.1165C134.527 30.4872 135.01 31.0476 135.373 31.7976C135.735 32.5433 135.916 33.4787 135.916 34.6037C135.916 35.6989 135.739 36.6236 135.385 37.3778C135.036 38.1278 134.559 38.6967 133.953 39.0845C133.353 39.468 132.679 39.6598 131.934 39.6598C131.405 39.6598 130.956 39.5724 130.585 39.3977C130.218 39.223 129.918 39.0036 129.684 38.7393C129.449 38.4709 129.27 38.2003 129.147 37.9276H129.064V43.1818H126.341ZM129.006 34.5909C129.006 35.1747 129.087 35.6839 129.249 36.1186C129.411 36.5533 129.645 36.892 129.952 37.1349C130.259 37.3736 130.632 37.4929 131.071 37.4929C131.514 37.4929 131.889 37.3714 132.196 37.1286C132.502 36.8814 132.735 36.5405 132.892 36.1058C133.054 35.6669 133.135 35.1619 133.135 34.5909C133.135 34.0241 133.056 33.5256 132.899 33.0952C132.741 32.6648 132.509 32.3281 132.202 32.0852C131.895 31.8423 131.518 31.7209 131.071 31.7209C130.627 31.7209 130.252 31.8381 129.946 32.0724C129.643 32.3068 129.411 32.6392 129.249 33.0696C129.087 33.5 129.006 34.0071 129.006 34.5909ZM140.454 26.4091V39.5H137.731V26.4091H140.454ZM144.317 43.1818C143.971 43.1818 143.648 43.1541 143.345 43.0987C143.047 43.0476 142.8 42.9815 142.604 42.9006L143.217 40.8679C143.537 40.9659 143.824 41.0192 144.08 41.0277C144.34 41.0362 144.564 40.9766 144.751 40.8487C144.943 40.7209 145.099 40.5036 145.218 40.1967L145.378 39.7812L141.856 29.6818H144.719L146.752 36.892H146.854L148.906 29.6818H151.789L147.973 40.5611C147.79 41.0895 147.54 41.5497 147.225 41.9418C146.914 42.3381 146.52 42.6428 146.042 42.8558C145.565 43.0732 144.99 43.1818 144.317 43.1818ZM168.349 26.4091V39.5H165.958L160.263 31.2607H160.167V39.5H157.4V26.4091H159.828L165.479 34.642H165.594V26.4091H168.349ZM175.021 39.6918C174.028 39.6918 173.169 39.4808 172.445 39.0589C171.725 38.6328 171.169 38.0405 170.776 37.282C170.384 36.5192 170.188 35.6349 170.188 34.6293C170.188 33.6151 170.384 32.7287 170.776 31.9702C171.169 31.2074 171.725 30.6151 172.445 30.1932C173.169 29.767 174.028 29.554 175.021 29.554C176.014 29.554 176.87 29.767 177.59 30.1932C178.315 30.6151 178.873 31.2074 179.265 31.9702C179.657 32.7287 179.853 33.6151 179.853 34.6293C179.853 35.6349 179.657 36.5192 179.265 37.282C178.873 38.0405 178.315 38.6328 177.59 39.0589C176.87 39.4808 176.014 39.6918 175.021 39.6918ZM175.034 37.5824C175.485 37.5824 175.862 37.4545 176.165 37.1989C176.468 36.9389 176.695 36.5852 176.849 36.1378C177.007 35.6903 177.085 35.1811 177.085 34.6101C177.085 34.0391 177.007 33.5298 176.849 33.0824C176.695 32.6349 176.468 32.2812 176.165 32.0213C175.862 31.7614 175.485 31.6314 175.034 31.6314C174.578 31.6314 174.194 31.7614 173.883 32.0213C173.576 32.2812 173.344 32.6349 173.186 33.0824C173.033 33.5298 172.956 34.0391 172.956 34.6101C172.956 35.1811 173.033 35.6903 173.186 36.1378C173.344 36.5852 173.576 36.9389 173.883 37.1989C174.194 37.4545 174.578 37.5824 175.034 37.5824ZM183.314 39.5L180.643 29.6818H183.398L184.919 36.2784H185.008L186.594 29.6818H189.297L190.908 36.2401H190.991L192.487 29.6818H195.236L192.57 39.5H189.687L188 33.3253H187.878L186.191 39.5H183.314Z" fill="url(#paint1_linear_1_713)"/>
<defs>
<linearGradient id="paint0_linear_1_713" x1="0" y1="0.5" x2="297.129" y2="6.04662" gradientUnits="userSpaceOnUse">
<stop stop-color="#5998EB"/>
<stop offset="1" stop-color="#B04E91"/>
</linearGradient>
<linearGradient id="paint1_linear_1_713" x1="148" y1="20.5" x2="148" y2="46.5" gradientUnits="userSpaceOnUse">
<stop stop-color="#4F277B"/>
<stop offset="1" stop-color="#B04E91"/>
</linearGradient>
</defs>
</svg>
