<svg width="302" height="67" viewBox="0 0 302 67" fill="none" xmlns="http://www.w3.org/2000/svg">
<rect x="1.5" y="2" width="299" height="63" rx="8.5" stroke="url(#paint0_linear_1_567)" stroke-width="3"/>
<path d="M109.921 30.6406C109.831 30.3295 109.706 30.0547 109.544 29.8161C109.382 29.5732 109.184 29.3686 108.949 29.2024C108.719 29.032 108.455 28.902 108.157 28.8125C107.862 28.723 107.536 28.6783 107.179 28.6783C106.509 28.6783 105.921 28.8445 105.414 29.1768C104.911 29.5092 104.519 29.9929 104.238 30.6278C103.957 31.2585 103.816 32.0298 103.816 32.9418C103.816 33.8537 103.955 34.6293 104.232 35.2685C104.509 35.9077 104.901 36.3956 105.408 36.7322C105.915 37.0646 106.514 37.2308 107.204 37.2308C107.831 37.2308 108.365 37.12 108.809 36.8984C109.256 36.6726 109.597 36.3551 109.831 35.946C110.07 35.5369 110.189 35.0533 110.189 34.495L110.752 34.5781H107.377V32.4943H112.855V34.1435C112.855 35.294 112.612 36.2827 112.126 37.1094C111.64 37.9318 110.971 38.5668 110.119 39.0142C109.267 39.4574 108.291 39.679 107.191 39.679C105.964 39.679 104.886 39.4084 103.957 38.8672C103.028 38.3217 102.304 37.5483 101.784 36.5469C101.268 35.5412 101.01 34.348 101.01 32.9673C101.01 31.9062 101.164 30.9602 101.47 30.1293C101.782 29.294 102.216 28.5866 102.774 28.0071C103.333 27.4276 103.983 26.9865 104.724 26.6839C105.465 26.3814 106.269 26.2301 107.134 26.2301C107.875 26.2301 108.566 26.3388 109.205 26.5561C109.844 26.7692 110.411 27.0717 110.905 27.4638C111.404 27.8558 111.811 28.3224 112.126 28.8636C112.441 29.4006 112.644 29.9929 112.733 30.6406H109.921ZM119.357 39.6918C118.347 39.6918 117.478 39.4872 116.749 39.0781C116.025 38.6648 115.466 38.081 115.074 37.3267C114.682 36.5682 114.486 35.6712 114.486 34.6357C114.486 33.6257 114.682 32.7393 115.074 31.9766C115.466 31.2138 116.018 30.6193 116.73 30.1932C117.446 29.767 118.285 29.554 119.248 29.554C119.896 29.554 120.499 29.6584 121.057 29.8672C121.62 30.0717 122.11 30.3807 122.527 30.794C122.949 31.2074 123.277 31.7273 123.512 32.3537C123.746 32.9759 123.863 33.7045 123.863 34.5398V35.2876H115.573V33.6001H121.3C121.3 33.2081 121.215 32.8608 121.044 32.5582C120.874 32.2557 120.638 32.0192 120.335 31.8487C120.037 31.674 119.689 31.5866 119.293 31.5866C118.88 31.5866 118.513 31.6825 118.194 31.8743C117.878 32.0618 117.631 32.3153 117.452 32.6349C117.273 32.9503 117.182 33.3018 117.177 33.6896V35.294C117.177 35.7798 117.267 36.1996 117.446 36.5533C117.629 36.907 117.887 37.1797 118.219 37.3714C118.552 37.5632 118.946 37.6591 119.402 37.6591C119.704 37.6591 119.981 37.6165 120.233 37.5312C120.484 37.446 120.699 37.3182 120.878 37.1477C121.057 36.9773 121.194 36.7685 121.287 36.5213L123.806 36.6875C123.678 37.2926 123.416 37.821 123.02 38.2727C122.628 38.7202 122.12 39.0696 121.498 39.321C120.88 39.5682 120.167 39.6918 119.357 39.6918ZM130.863 29.6818V31.7273H124.95V29.6818H130.863ZM126.292 27.3295H129.015V36.483C129.015 36.7344 129.054 36.9304 129.13 37.071C129.207 37.2074 129.314 37.3033 129.45 37.3587C129.591 37.4141 129.753 37.4418 129.936 37.4418C130.064 37.4418 130.191 37.4311 130.319 37.4098C130.447 37.3842 130.545 37.3651 130.613 37.3523L131.042 39.3786C130.905 39.4212 130.714 39.4702 130.466 39.5256C130.219 39.5852 129.919 39.6214 129.565 39.6342C128.909 39.6598 128.334 39.5724 127.839 39.3722C127.349 39.1719 126.968 38.8608 126.695 38.4389C126.422 38.017 126.288 37.4844 126.292 36.8409V27.3295ZM143.955 30.174C143.904 29.6584 143.685 29.2578 143.297 28.9723C142.909 28.6868 142.383 28.544 141.718 28.544C141.266 28.544 140.885 28.608 140.574 28.7358C140.263 28.8594 140.024 29.032 139.858 29.2536C139.696 29.4751 139.615 29.7266 139.615 30.0078C139.606 30.2422 139.655 30.4467 139.762 30.6214C139.873 30.7962 140.024 30.9474 140.216 31.0753C140.408 31.1989 140.629 31.3075 140.881 31.4013C141.132 31.4908 141.4 31.5675 141.686 31.6314L142.862 31.9126C143.433 32.0405 143.957 32.2109 144.435 32.424C144.912 32.6371 145.325 32.8991 145.675 33.2102C146.024 33.5213 146.295 33.8878 146.486 34.3097C146.682 34.7315 146.783 35.2152 146.787 35.7607C146.783 36.5618 146.578 37.2564 146.173 37.8445C145.773 38.4283 145.193 38.8821 144.435 39.206C143.68 39.5256 142.771 39.6854 141.705 39.6854C140.648 39.6854 139.728 39.5234 138.944 39.1996C138.164 38.8757 137.555 38.3963 137.116 37.7614C136.681 37.1222 136.453 36.3317 136.432 35.3899H139.11C139.14 35.8288 139.266 36.1953 139.487 36.4893C139.713 36.7791 140.013 36.9986 140.388 37.1477C140.768 37.2926 141.196 37.3651 141.673 37.3651C142.142 37.3651 142.549 37.2969 142.894 37.1605C143.244 37.0241 143.514 36.8345 143.706 36.5916C143.898 36.3487 143.994 36.0696 143.994 35.7543C143.994 35.4602 143.906 35.2131 143.731 35.0128C143.561 34.8125 143.31 34.642 142.977 34.5014C142.649 34.3608 142.246 34.233 141.769 34.1179L140.344 33.7599C139.24 33.4915 138.369 33.0717 137.729 32.5007C137.09 31.9297 136.773 31.1605 136.777 30.1932C136.773 29.4006 136.984 28.7081 137.41 28.1158C137.84 27.5234 138.43 27.0611 139.18 26.7287C139.93 26.3963 140.783 26.2301 141.737 26.2301C142.709 26.2301 143.557 26.3963 144.281 26.7287C145.01 27.0611 145.577 27.5234 145.981 28.1158C146.386 28.7081 146.595 29.3942 146.608 30.174H143.955ZM153.82 29.6818V31.7273H147.907V29.6818H153.82ZM149.249 27.3295H151.972V36.483C151.972 36.7344 152.011 36.9304 152.087 37.071C152.164 37.2074 152.271 37.3033 152.407 37.3587C152.548 37.4141 152.71 37.4418 152.893 37.4418C153.021 37.4418 153.149 37.4311 153.276 37.4098C153.404 37.3842 153.502 37.3651 153.57 37.3523L153.999 39.3786C153.862 39.4212 153.671 39.4702 153.423 39.5256C153.176 39.5852 152.876 39.6214 152.522 39.6342C151.866 39.6598 151.291 39.5724 150.796 39.3722C150.306 39.1719 149.925 38.8608 149.652 38.4389C149.379 38.017 149.245 37.4844 149.249 36.8409V27.3295ZM158.393 39.6854C157.767 39.6854 157.209 39.5767 156.718 39.3594C156.228 39.1378 155.841 38.8118 155.555 38.3814C155.274 37.9467 155.133 37.4055 155.133 36.7578C155.133 36.2124 155.233 35.7543 155.434 35.3835C155.634 35.0128 155.907 34.7145 156.252 34.4886C156.597 34.2628 156.989 34.0923 157.428 33.9773C157.871 33.8622 158.336 33.7812 158.821 33.7344C159.392 33.6747 159.853 33.6193 160.202 33.5682C160.552 33.5128 160.805 33.4318 160.963 33.3253C161.12 33.2187 161.199 33.0611 161.199 32.8523V32.8139C161.199 32.4091 161.071 32.0959 160.816 31.8743C160.564 31.6527 160.206 31.5419 159.742 31.5419C159.252 31.5419 158.862 31.6506 158.572 31.8679C158.282 32.081 158.091 32.3494 157.997 32.6733L155.478 32.4688C155.606 31.8722 155.858 31.3565 156.233 30.9219C156.608 30.483 157.091 30.1463 157.684 29.9119C158.28 29.6733 158.971 29.554 159.755 29.554C160.3 29.554 160.822 29.6179 161.321 29.7457C161.824 29.8736 162.269 30.0717 162.657 30.3402C163.049 30.6087 163.358 30.9538 163.584 31.3757C163.809 31.7933 163.922 32.294 163.922 32.8778V39.5H161.34V38.1385H161.263C161.106 38.4453 160.895 38.7159 160.63 38.9503C160.366 39.1804 160.049 39.3615 159.678 39.4936C159.307 39.6214 158.879 39.6854 158.393 39.6854ZM159.173 37.8061C159.574 37.8061 159.927 37.7273 160.234 37.5696C160.541 37.4077 160.782 37.1903 160.956 36.9176C161.131 36.6449 161.218 36.3359 161.218 35.9908V34.9489C161.133 35.0043 161.016 35.0554 160.867 35.1023C160.722 35.1449 160.558 35.1854 160.375 35.2237C160.191 35.2578 160.008 35.2898 159.825 35.3196C159.642 35.3452 159.476 35.3686 159.326 35.3899C159.007 35.4368 158.728 35.5114 158.489 35.6136C158.25 35.7159 158.065 35.8544 157.933 36.0291C157.801 36.1996 157.735 36.4126 157.735 36.6683C157.735 37.0391 157.869 37.3224 158.138 37.5185C158.41 37.7102 158.755 37.8061 159.173 37.8061ZM166.035 39.5V29.6818H168.675V31.3949H168.777C168.956 30.7855 169.256 30.3253 169.678 30.0142C170.1 29.6989 170.586 29.5412 171.136 29.5412C171.272 29.5412 171.419 29.5497 171.577 29.5668C171.734 29.5838 171.873 29.6072 171.992 29.6371V32.0533C171.864 32.0149 171.688 31.9808 171.462 31.951C171.236 31.9212 171.029 31.9062 170.842 31.9062C170.441 31.9062 170.083 31.9936 169.768 32.1683C169.457 32.3388 169.21 32.5774 169.026 32.8842C168.847 33.1911 168.758 33.5447 168.758 33.9453V39.5H166.035ZM179.115 29.6818V31.7273H173.202V29.6818H179.115ZM174.544 27.3295H177.267V36.483C177.267 36.7344 177.306 36.9304 177.382 37.071C177.459 37.2074 177.566 37.3033 177.702 37.3587C177.843 37.4141 178.005 37.4418 178.188 37.4418C178.316 37.4418 178.443 37.4311 178.571 37.4098C178.699 37.3842 178.797 37.3651 178.865 37.3523L179.294 39.3786C179.157 39.4212 178.965 39.4702 178.718 39.5256C178.471 39.5852 178.171 39.6214 177.817 39.6342C177.161 39.6598 176.585 39.5724 176.091 39.3722C175.601 39.1719 175.22 38.8608 174.947 38.4389C174.674 38.017 174.54 37.4844 174.544 36.8409V27.3295ZM185.257 39.6918C184.247 39.6918 183.378 39.4872 182.649 39.0781C181.925 38.6648 181.367 38.081 180.975 37.3267C180.583 36.5682 180.387 35.6712 180.387 34.6357C180.387 33.6257 180.583 32.7393 180.975 31.9766C181.367 31.2138 181.919 30.6193 182.63 30.1932C183.346 29.767 184.186 29.554 185.149 29.554C185.796 29.554 186.399 29.6584 186.958 29.8672C187.52 30.0717 188.01 30.3807 188.428 30.794C188.85 31.2074 189.178 31.7273 189.412 32.3537C189.647 32.9759 189.764 33.7045 189.764 34.5398V35.2876H181.473V33.6001H187.201C187.201 33.2081 187.115 32.8608 186.945 32.5582C186.774 32.2557 186.538 32.0192 186.235 31.8487C185.937 31.674 185.59 31.5866 185.193 31.5866C184.78 31.5866 184.414 31.6825 184.094 31.8743C183.779 32.0618 183.532 32.3153 183.353 32.6349C183.174 32.9503 183.082 33.3018 183.078 33.6896V35.294C183.078 35.7798 183.167 36.1996 183.346 36.5533C183.529 36.907 183.787 37.1797 184.12 37.3714C184.452 37.5632 184.846 37.6591 185.302 37.6591C185.605 37.6591 185.882 37.6165 186.133 37.5312C186.384 37.446 186.6 37.3182 186.779 37.1477C186.958 36.9773 187.094 36.7685 187.188 36.5213L189.706 36.6875C189.578 37.2926 189.316 37.821 188.92 38.2727C188.528 38.7202 188.021 39.0696 187.399 39.321C186.781 39.5682 186.067 39.6918 185.257 39.6918ZM195.159 39.6598C194.413 39.6598 193.737 39.468 193.132 39.0845C192.532 38.6967 192.054 38.1278 191.701 37.3778C191.351 36.6236 191.176 35.6989 191.176 34.6037C191.176 33.4787 191.358 32.5433 191.72 31.7976C192.082 31.0476 192.563 30.4872 193.164 30.1165C193.769 29.7415 194.432 29.554 195.152 29.554C195.702 29.554 196.16 29.6477 196.527 29.8352C196.897 30.0185 197.196 30.2486 197.421 30.5256C197.652 30.7983 197.826 31.0668 197.946 31.331H198.029V26.4091H200.745V39.5H198.061V37.9276H197.946C197.818 38.2003 197.637 38.4709 197.402 38.7393C197.172 39.0036 196.872 39.223 196.501 39.3977C196.134 39.5724 195.687 39.6598 195.159 39.6598ZM196.022 37.4929C196.46 37.4929 196.831 37.3736 197.134 37.1349C197.441 36.892 197.675 36.5533 197.837 36.1186C198.003 35.6839 198.086 35.1747 198.086 34.5909C198.086 34.0071 198.005 33.5 197.843 33.0696C197.681 32.6392 197.447 32.3068 197.14 32.0724C196.833 31.8381 196.46 31.7209 196.022 31.7209C195.574 31.7209 195.197 31.8423 194.89 32.0852C194.583 32.3281 194.351 32.6648 194.193 33.0952C194.036 33.5256 193.957 34.0241 193.957 34.5909C193.957 35.1619 194.036 35.6669 194.193 36.1058C194.355 36.5405 194.588 36.8814 194.89 37.1286C195.197 37.3714 195.574 37.4929 196.022 37.4929Z" fill="url(#paint1_linear_1_567)"/>
<defs>
<linearGradient id="paint0_linear_1_567" x1="151" y1="0.5" x2="151" y2="66.5" gradientUnits="userSpaceOnUse">
<stop stop-color="#4F277B"/>
<stop offset="1" stop-color="#B04E91"/>
</linearGradient>
<linearGradient id="paint1_linear_1_567" x1="151" y1="20.5" x2="151" y2="46.5" gradientUnits="userSpaceOnUse">
<stop stop-color="#4F277B"/>
<stop offset="1" stop-color="#B04E91"/>
</linearGradient>
</defs>
</svg>
